<svg id="Layer_1" data-name="Layer 1" xmlns="http://www.w3.org/2000/svg" xmlns:xlink="http://www.w3.org/1999/xlink" width="739" height="63.85" viewBox="0 0 739 63.85"><defs><style>.cls-1{fill:none;}.cls-2{clip-path:url(#clip-path);}.cls-3{fill:#59aad8;}.cls-4{fill:#e6e6e5;}.cls-5{fill:#818181;}.cls-6{fill:#4e4e4e;}.cls-7{fill:#676767;}.cls-8{fill:#3d3c40;}.cls-9{fill:#d1d3d4;}.cls-10{font-size:16.51px;font-family:AcuminProSemiCond-Semibold, Acumin Pro SemiCondensed;font-weight:600;letter-spacing:0.04em;}.cls-10,.cls-12{fill:#3d3d40;}.cls-11{letter-spacing:0.02em;}</style><clipPath id="clip-path"><circle class="cls-1" cx="25.36" cy="25.11" r="25.11"/></clipPath></defs><g id="Logo"><g class="cls-2"><path class="cls-3" d="M50.56,25.16A25.15,25.15,0,0,1,25.41,50.31a24.83,24.83,0,0,1-5.49-.6A25.16,25.16,0,0,1,.25,25.16c0-.87,0-1.74.13-2.59a25.16,25.16,0,0,1,50.18,2.59Z"/></g><g class="cls-2"><path class="cls-4" d="M26,30.28a38.89,38.89,0,0,0-.57,13.16,42.19,42.19,0,0,1-5.08,5l-1.21,1A24.11,24.11,0,0,1,.25,25.93a22.76,22.76,0,0,1,.13-2.48c1.45-.54,2.94-1,4.36-1.41a27.57,27.57,0,0,0,7.38-3.32,28.08,28.08,0,0,0,4.76-3.82A21.91,21.91,0,0,1,19,13s9,6.66,7,17.25Z"/><path class="cls-5" d="M40.4,18.32c6,.68,9.74,5.47,9.74,5.47s-8.63-3-14.86-3.08Z"/><path class="cls-6" d="M50.14,23.79c-2.47.83-6.63.61-9.93.23a6.18,6.18,0,0,0-2.43.21l-2.5-3.52c6.23.09,14.86,3.08,14.86,3.08Z"/><path class="cls-7" d="M32.54,10.12c8,2.73,7.86,8.2,7.86,8.2l-5.12,2.39,2.5,3.52a6.11,6.11,0,0,0-4.1,4l-.31,1a41.79,41.79,0,0,1-8,14.26A38.89,38.89,0,0,1,26,30.28C28,19.69,19,13,19,13c3.87-3,8.69-4.57,13.56-2.92Z"/><circle class="cls-6" cx="34.34" cy="17.21" r="1.45"/><path class="cls-7" d="M9.35,44.79h0A24.06,24.06,0,0,1,.25,25.93a22.76,22.76,0,0,1,.13-2.48c1.45-.54,2.94-1,4.36-1.41a27.57,27.57,0,0,0,7.38-3.32S15,32.17,9.35,44.79Z"/></g></g><path class="cls-8" d="M70.19,16.73v7.44h-2V7.81H74c2.89,0,4.91,1.43,4.91,4.21a3.71,3.71,0,0,1-2.68,3.83c1.71.54,2.44,1.89,2.44,4.12v.3a21.74,21.74,0,0,0,.23,3.9h-2a16.48,16.48,0,0,1-.28-3.88V20c0-2.32-.84-3.23-3.53-3.23Zm0-1.68h3c2.13,0,3.6-.61,3.6-2.91,0-1.75-1.17-2.65-3.12-2.65h-3.5Z"/><path class="cls-8" d="M91.44,21.5a21,21,0,0,0,.18,2.67H89.83a11,11,0,0,1-.17-1.86C89.2,23.52,88,24.38,86,24.38c-2.94,0-3.84-2-3.84-3.64s1.17-3.82,5.47-3.82H89.5V15.76c0-1.14-.32-2.32-2.36-2.32a2.2,2.2,0,0,0-2.55,2.13H82.67c.18-2,1.34-3.65,4.53-3.65,2.52,0,4.24,1,4.24,3.74Zm-1.88-3.16h-1.9c-2.91,0-3.46,1.19-3.46,2.28a2,2,0,0,0,2.22,2.14c2.36,0,3.14-1.59,3.14-4.17Z"/><path class="cls-8" d="M96.15,12.15c1.62,5.09,2.7,8.47,3.06,10.15h0c.26-1.41,2.33-7.48,3.18-10.15h2l-4.14,12H98.05l-4-12Z"/><path class="cls-8" d="M108.39,18.54c0,2.4,1,4.22,3.13,4.22a2.74,2.74,0,0,0,2.76-2h1.93a4.59,4.59,0,0,1-4.78,3.63c-3.76,0-5-3-5-6.28,0-3,1.45-6.2,5.15-6.2s4.86,2.93,4.86,5.71c0,.06,0,.83,0,.91Zm6.07-1.44c-.06-2.05-.88-3.59-3-3.59-2.38,0-2.94,2.16-3,3.59Z"/><path class="cls-8" d="M120,15.92c0-2.51,0-3.25,0-3.77h1.93c0,.23.09,1.39.07,1.89a3.66,3.66,0,0,1,3.55-2.12c2.22,0,3.82,1.25,3.82,4.5v7.75h-2V16.72c0-1.75-.59-3.08-2.38-3.08-2.14,0-3,1.59-3,4.11v6.42h-2Z"/><g id="Bot"><rect class="cls-9" x="137.23" y="1.1" width="44.32" height="28.46" rx="3.43"/><text class="cls-10" transform="translate(143.37 21.53)">B<tspan class="cls-11" x="10.8" y="0">O</tspan><tspan x="22.52" y="0">T</tspan></text></g><path class="cls-12" d="M192.4,20.28a3.7,3.7,0,0,1,2.37-3.55,3.23,3.23,0,0,1-1.84-3.05c0-2.18,1.49-3.73,4.15-3.73,2.38,0,4,1.41,4,3.66a3.08,3.08,0,0,1-1.87,3,3.64,3.64,0,0,1,2.34,3.58c0,2.67-1.81,4.28-4.66,4.28A4.13,4.13,0,0,1,192.4,20.28Zm7.37,0a2.8,2.8,0,1,0-5.59,0A2.68,2.68,0,0,0,197,23.08,2.59,2.59,0,0,0,199.77,20.26Zm-5.13-6.58A2.15,2.15,0,0,0,197,16a2.11,2.11,0,0,0,2.36-2.29A2.21,2.21,0,0,0,197,11.36,2.14,2.14,0,0,0,194.64,13.68Z"/><path class="cls-12" d="M204.68,16.6V13.7h1.72v2.9Zm0,7.71v-2.9h1.72v2.9Z"/><path class="cls-12" d="M219.15,16.9c0,3.82-.85,7.61-4.55,7.61S210,20.57,210,16.93s1.21-7,4.6-7S219.15,13.16,219.15,16.9Zm-7.33,0c0,3.44.61,6.16,2.8,6.16s2.74-2.73,2.74-6.13c0-3-.61-5.55-2.73-5.55S211.82,14,211.82,16.9Z"/><path class="cls-12" d="M231.27,16.9c0,3.82-.85,7.61-4.55,7.61s-4.58-3.94-4.58-7.58,1.21-7,4.6-7S231.27,13.16,231.27,16.9Zm-7.33,0c0,3.44.61,6.16,2.79,6.16s2.75-2.73,2.75-6.13c0-3-.61-5.55-2.73-5.55S223.94,14,223.94,16.9Z"/><path class="cls-12" d="M242.78,19.85l-1.42,4.45h-1.81c1-3.05,3.6-11.15,4.75-14.6h2.3l5,14.6h-1.94l-1.46-4.45Zm4.93-1.56c-1.23-3.76-2-5.94-2.3-7.1h0c-.4,1.72-1.16,4-2.17,7.1Z"/><path class="cls-12" d="M266.34,18.08c0-2.7,0-5.49.09-7h-.06c-.69,2.62-2.93,9.06-4.44,13.25h-1.68c-1.13-3.5-3.44-10.49-4.14-13.28H256c.12,1.69.17,5,.17,7.46V24.3h-1.71V9.7h2.72c1.52,4.31,3.48,10.28,4,12.29h0c.29-1.4,2.64-7.95,4.22-12.29h2.66V24.3h-1.77Z"/><path class="cls-12" d="M66.44,41.22h5c2.77,0,4.82,1.44,4.82,4.13,0,2.92-2.06,4.36-5.06,4.36h-2.9v6.4H66.44Zm1.85,7h2.82c1.94,0,3.24-.67,3.24-2.79,0-1.8-1.3-2.63-3.21-2.63H68.29Z"/><path class="cls-12" d="M79.37,56.11V40.41h1.79v15.7Z"/><path class="cls-12" d="M86.26,51c0,2.19.91,3.84,2.84,3.84A2.5,2.5,0,0,0,91.61,53h1.76A4.18,4.18,0,0,1,89,56.32c-3.42,0-4.58-2.69-4.58-5.71,0-2.68,1.31-5.65,4.68-5.65s4.42,2.67,4.42,5.2c0,.06,0,.76,0,.83Zm5.52-1.31c-.06-1.86-.81-3.27-2.7-3.27-2.17,0-2.68,2-2.78,3.27Z"/><path class="cls-12" d="M104.42,53.68a17.58,17.58,0,0,0,.17,2.43H103a10.26,10.26,0,0,1-.16-1.69,3.22,3.22,0,0,1-3.3,1.88A3.15,3.15,0,0,1,96,53c0-1.65,1.06-3.48,5-3.48h1.67V48.45c0-1-.29-2.1-2.15-2.1a2,2,0,0,0-2.32,1.93H96.44c.16-1.83,1.22-3.32,4.13-3.32,2.28,0,3.85.92,3.85,3.41Zm-1.71-2.87H101c-2.65,0-3.15,1.08-3.15,2.07a1.85,1.85,0,0,0,2,1.95c2.14,0,2.85-1.45,2.85-3.8Z"/><path class="cls-12" d="M109,53a2.28,2.28,0,0,0,2.46,2c1.51,0,2.11-.8,2.11-1.74s-.7-1.5-2.55-2c-2.67-.73-3.37-1.7-3.37-3.16s1-3,3.67-3,3.66,1.46,3.8,3.14H113.4a1.94,1.94,0,0,0-2.14-1.75c-1.23,0-1.8.61-1.8,1.51s.41,1.26,2.26,1.74c2.78.74,3.67,1.69,3.67,3.42,0,2-1.61,3.28-4,3.28s-4-1.07-4.17-3.35Z"/><path class="cls-12" d="M119.72,51c0,2.19.92,3.84,2.85,3.84a2.48,2.48,0,0,0,2.5-1.81h1.76a4.18,4.18,0,0,1-4.35,3.3c-3.42,0-4.58-2.69-4.58-5.71,0-2.68,1.32-5.65,4.68-5.65s4.43,2.67,4.43,5.2c0,.06,0,.76,0,.83Zm5.52-1.31c-.06-1.86-.81-3.27-2.7-3.27-2.17,0-2.68,2-2.78,3.27Z"/><path class="cls-12" d="M137.19,53a2.28,2.28,0,0,0,2.46,2c1.51,0,2.1-.8,2.1-1.74s-.69-1.5-2.55-2c-2.66-.73-3.36-1.7-3.36-3.16s1-3,3.66-3,3.67,1.46,3.81,3.14h-1.75a1.94,1.94,0,0,0-2.14-1.75c-1.23,0-1.8.61-1.8,1.51s.41,1.26,2.25,1.74c2.79.74,3.67,1.69,3.67,3.42,0,2-1.6,3.28-3.95,3.28s-4-1.07-4.17-3.35Z"/><path class="cls-12" d="M145.35,45.18h1.75V42h1.78v3.18h2.21v1.47h-2.21v6.84c0,.91.23,1.3,1.16,1.3a5.41,5.41,0,0,0,.85-.07v1.34a4.86,4.86,0,0,1-1.43.19c-1.59,0-2.36-.61-2.36-2.43V46.65h-1.75Z"/><path class="cls-12" d="M161.47,53.68a17.58,17.58,0,0,0,.17,2.43H160a10.26,10.26,0,0,1-.16-1.69,3.22,3.22,0,0,1-3.3,1.88A3.15,3.15,0,0,1,153.06,53c0-1.65,1.06-3.48,5-3.48h1.68V48.45c0-1-.3-2.1-2.15-2.1a2,2,0,0,0-2.33,1.93h-1.74c.16-1.83,1.22-3.32,4.13-3.32,2.28,0,3.85.92,3.85,3.41Zm-1.71-2.87H158c-2.65,0-3.15,1.08-3.15,2.07a1.85,1.85,0,0,0,2,1.95c2.14,0,2.85-1.45,2.85-3.8Z"/><path class="cls-12" d="M165.49,48.89c0-1.75,0-3.17-.05-3.71h1.76c0,.51,0,1.21,0,2.21A3.66,3.66,0,0,1,170.78,45v1.86c-2.46.09-3.51,1.53-3.51,3.89v5.38h-1.78Z"/><path class="cls-12" d="M172.76,45.18h1.75V42h1.78v3.18h2.2v1.47h-2.2v6.84c0,.91.22,1.3,1.16,1.3a5.41,5.41,0,0,0,.85-.07v1.34a4.9,4.9,0,0,1-1.43.19c-1.59,0-2.36-.61-2.36-2.43V46.65h-1.75Z"/><path class="cls-12" d="M187.6,56.11V46.65h-1.68V45.18h1.68V43.81c0-1.94.68-3.57,3-3.57a3.29,3.29,0,0,1,1,.14v1.51a4.07,4.07,0,0,0-.89-.09c-1,0-1.33.65-1.33,1.92v1.46h2v1.47h-2v9.46Z"/><path class="cls-12" d="M194,40.41h1.79v2.32H194Zm0,4.77h1.79V56.11H194Z"/><path class="cls-12" d="M199.83,56.11V40.41h1.79v15.7Z"/><path class="cls-12" d="M205.63,56.11V40.41h1.79v15.7Z"/><path class="cls-12" d="M211.43,40.41h1.79v2.32h-1.79Zm0,4.77h1.79V56.11h-1.79Z"/><path class="cls-12" d="M217.23,48.6c0-2.28,0-3,0-3.42h1.75c0,.21.08,1.25.07,1.71A3.32,3.32,0,0,1,222.23,45c2,0,3.48,1.14,3.48,4.1v7h-1.8V49.33c0-1.59-.54-2.8-2.16-2.8-2,0-2.73,1.44-2.73,3.74v5.84h-1.79Z"/><path class="cls-12" d="M238.16,55.28c0,3.41-1.36,5.33-4.69,5.33s-4.15-1.71-4.31-3.26h1.77a2.34,2.34,0,0,0,2.61,1.8c2.35,0,2.88-1.53,2.88-3.92v-.9a3.07,3.07,0,0,1-3.21,1.8c-2.57,0-4.23-2.15-4.23-5.53,0-3.55,2-5.64,4.48-5.64,1.73,0,2.63.71,2.91,1.55a13.25,13.25,0,0,1,.09-1.33h1.75c0,.52-.05,1.68-.05,3.17Zm-7.33-4.71c0,2.54,1.08,4,2.81,4,2.09,0,2.83-1.31,2.83-4.06s-.61-4-2.73-4C231.92,46.52,230.83,48,230.83,50.57Z"/><path class="cls-12" d="M248.88,45.18c1.7,5.29,2.58,8,2.86,9.26h0c.33-1.2,1.3-4.54,2.8-9.26h1.84L252.57,56.6c-1.11,3.32-2,4-3.95,4a5.19,5.19,0,0,1-.94-.08V59a7.07,7.07,0,0,0,.94.06c1.31,0,1.72-1.05,2.24-2.61L247,45.18Z"/><path class="cls-12" d="M267.9,50.46c0,3.17-1.39,5.84-4.89,5.84s-4.74-2.78-4.74-5.79S259.85,45,263.15,45C266.25,45,267.9,47.31,267.9,50.46Zm-7.79,0c0,2.52,1,4.31,3,4.31s2.93-1.75,2.93-4.34c0-2.37-1-4-3-4S260.11,48.12,260.11,50.5Z"/><path class="cls-12" d="M279.44,53c0,1.37,0,2.56,0,3.09h-1.72a11.21,11.21,0,0,1-.1-1.74,3.22,3.22,0,0,1-3.2,1.93c-1.71,0-3.35-.82-3.35-3.76V45.18h1.78v7c0,1.41.45,2.56,2.11,2.56s2.63-1,2.63-3.46V45.18h1.81Z"/><path class="cls-12" d="M283.44,48.89c0-1.75,0-3.17,0-3.71h1.76c0,.51,0,1.21,0,2.21A3.66,3.66,0,0,1,288.74,45v1.86c-2.46.09-3.51,1.53-3.51,3.89v5.38h-1.79Z"/><path class="cls-12" d="M298.4,53a2.27,2.27,0,0,0,2.46,2c1.51,0,2.1-.8,2.1-1.74s-.69-1.5-2.55-2c-2.66-.73-3.36-1.7-3.36-3.16s1-3,3.66-3,3.67,1.46,3.81,3.14h-1.75a1.94,1.94,0,0,0-2.14-1.75c-1.23,0-1.8.61-1.8,1.51s.41,1.26,2.25,1.74c2.79.74,3.67,1.69,3.67,3.42,0,2-1.6,3.28-3.95,3.28s-4-1.07-4.17-3.35Z"/><path class="cls-12" d="M306.56,45.18h1.75V42h1.78v3.18h2.21v1.47h-2.21v6.84c0,.91.23,1.3,1.16,1.3a5.41,5.41,0,0,0,.85-.07v1.34a4.86,4.86,0,0,1-1.43.19c-1.59,0-2.36-.61-2.36-2.43V46.65h-1.75Z"/><path class="cls-12" d="M322.68,53.68a19.41,19.41,0,0,0,.16,2.43h-1.62a10.26,10.26,0,0,1-.16-1.69,3.22,3.22,0,0,1-3.31,1.88A3.14,3.14,0,0,1,314.27,53c0-1.65,1.06-3.48,5-3.48h1.68V48.45c0-1-.3-2.1-2.15-2.1a2,2,0,0,0-2.33,1.93H314.7c.16-1.83,1.22-3.32,4.13-3.32,2.28,0,3.85.92,3.85,3.41ZM321,50.81h-1.73c-2.65,0-3.15,1.08-3.15,2.07a1.85,1.85,0,0,0,2,1.95c2.14,0,2.85-1.45,2.85-3.8Z"/><path class="cls-12" d="M326.7,48.6c0-2.28,0-3-.05-3.42h1.76c0,.21.08,1.25.06,1.71A3.33,3.33,0,0,1,331.69,45c2,0,3.48,1.14,3.48,4.1v7h-1.79V49.33c0-1.59-.54-2.8-2.17-2.8-1.95,0-2.73,1.44-2.73,3.74v5.84H326.7Z"/><path class="cls-12" d="M347.68,40.41V53.26c0,1.05,0,2.17.05,2.85H346c0-.29-.06-1-.06-1.61-.58,1.26-1.47,1.81-3.26,1.81-2.83,0-4.24-2.39-4.24-5.65S340.05,45,343,45c1.77,0,2.59.71,2.89,1.31V40.41Zm-7.42,10.18c0,2.65,1.15,4.19,2.87,4.19,2.35,0,2.84-1.79,2.84-4.35,0-3-.88-3.93-2.73-3.93S340.26,48,340.26,50.59Z"/><path class="cls-12" d="M359.9,53c0,1.37,0,2.56.05,3.09h-1.73a13.1,13.1,0,0,1-.09-1.74,3.25,3.25,0,0,1-3.21,1.93c-1.71,0-3.35-.82-3.35-3.76V45.18h1.78v7c0,1.41.45,2.56,2.11,2.56s2.63-1,2.63-3.46V45.18h1.81Z"/><path class="cls-12" d="M365.69,54.79v5.65h-1.78v-12c0-1.5,0-2.55,0-3.22h1.76c0,.37.05,1.15.06,1.76a3.48,3.48,0,0,1,3.4-2c2.38,0,4.08,1.89,4.08,5.51s-2,5.82-4.52,5.82A3.07,3.07,0,0,1,365.69,54.79Zm5.64-4.27c0-2.63-1.06-4-2.81-4-2.24,0-2.92,1.55-2.92,4.18,0,2.41.47,4.08,2.81,4.08C370.24,54.76,371.33,53.24,371.33,50.52Z"/><path class="cls-12" d="M377.29,53a2.27,2.27,0,0,0,2.46,2c1.51,0,2.1-.8,2.1-1.74s-.69-1.5-2.55-2c-2.66-.73-3.36-1.7-3.36-3.16s1-3,3.66-3,3.67,1.46,3.81,3.14h-1.75a1.94,1.94,0,0,0-2.14-1.75c-1.23,0-1.8.61-1.8,1.51s.41,1.26,2.25,1.74c2.79.74,3.67,1.69,3.67,3.42,0,2-1.6,3.28-3.95,3.28s-4-1.07-4.17-3.35Z"/><path class="cls-12" d="M387.84,51.16l-.18-7.3V41.22h1.91v2.64l-.16,7.3Zm-.15,5V53.35h1.81v2.76Z"/></svg>