<svg id="Layer_1" data-name="Layer 1" xmlns="http://www.w3.org/2000/svg" xmlns:xlink="http://www.w3.org/1999/xlink" width="739" height="63.85" viewBox="0 0 739 63.85"><defs><style>.cls-1{fill:none;}.cls-2{clip-path:url(#clip-path);}.cls-3{fill:#59aad8;}.cls-4{fill:#e6e6e5;}.cls-5{fill:#818181;}.cls-6{fill:#4e4e4e;}.cls-7{fill:#676767;}.cls-8{fill:#3d3c40;}.cls-9{fill:#d1d3d4;}.cls-10{font-size:16.51px;font-family:AcuminProSemiCond-Semibold, Acumin Pro SemiCondensed;font-weight:600;letter-spacing:0.04em;}.cls-10,.cls-12{fill:#3d3d40;}.cls-11{letter-spacing:0.02em;}.cls-13{fill:#fee577;}.cls-14{font-size:21.47px;fill:#3c6cb4;font-family:AcuminProSemiCond-Regular, Acumin Pro SemiCondensed;letter-spacing:0.04em;}.cls-15{letter-spacing:0.03em;}.cls-16{letter-spacing:0.04em;}.cls-17{letter-spacing:0.04em;}</style><clipPath id="clip-path"><circle class="cls-1" cx="25.36" cy="25.11" r="25.11"/></clipPath></defs><g id="Logo"><g class="cls-2"><path class="cls-3" d="M50.56,25.16A25.15,25.15,0,0,1,25.41,50.31a24.83,24.83,0,0,1-5.49-.6A25.16,25.16,0,0,1,.25,25.16c0-.87,0-1.74.13-2.59a25.16,25.16,0,0,1,50.18,2.59Z"/></g><g class="cls-2"><path class="cls-4" d="M26,30.28a38.89,38.89,0,0,0-.57,13.16,42.19,42.19,0,0,1-5.08,5l-1.21,1A24.11,24.11,0,0,1,.25,25.93a22.76,22.76,0,0,1,.13-2.48c1.45-.54,2.94-1,4.36-1.41a27.57,27.57,0,0,0,7.38-3.32,28.08,28.08,0,0,0,4.76-3.82A21.91,21.91,0,0,1,19,13s9,6.66,7,17.25Z"/><path class="cls-5" d="M40.4,18.32c6,.68,9.74,5.47,9.74,5.47s-8.63-3-14.86-3.08Z"/><path class="cls-6" d="M50.14,23.79c-2.47.83-6.63.61-9.93.23a6.18,6.18,0,0,0-2.43.21l-2.5-3.52c6.23.09,14.86,3.08,14.86,3.08Z"/><path class="cls-7" d="M32.54,10.12c8,2.73,7.86,8.2,7.86,8.2l-5.12,2.39,2.5,3.52a6.11,6.11,0,0,0-4.1,4l-.31,1a41.79,41.79,0,0,1-8,14.26A38.89,38.89,0,0,1,26,30.28C28,19.69,19,13,19,13c3.87-3,8.69-4.57,13.56-2.92Z"/><circle class="cls-6" cx="34.34" cy="17.21" r="1.45"/><path class="cls-7" d="M9.35,44.79h0A24.06,24.06,0,0,1,.25,25.93a22.76,22.76,0,0,1,.13-2.48c1.45-.54,2.94-1,4.36-1.41a27.57,27.57,0,0,0,7.38-3.32S15,32.17,9.35,44.79Z"/></g></g><path class="cls-8" d="M70.19,16.73v7.44h-2V7.81H74c2.89,0,4.91,1.43,4.91,4.22a3.7,3.7,0,0,1-2.68,3.82c1.71.55,2.44,1.89,2.44,4.12v.3a21.74,21.74,0,0,0,.23,3.9h-2a16.48,16.48,0,0,1-.28-3.88V20c0-2.32-.84-3.23-3.53-3.23Zm0-1.68h3c2.13,0,3.6-.61,3.6-2.91,0-1.75-1.17-2.65-3.12-2.65h-3.5Z"/><path class="cls-8" d="M91.44,21.5a21,21,0,0,0,.18,2.67H89.83a11,11,0,0,1-.17-1.86C89.2,23.52,88,24.38,86,24.38c-2.94,0-3.84-2-3.84-3.64s1.17-3.82,5.47-3.82H89.5V15.76c0-1.14-.32-2.32-2.36-2.32a2.2,2.2,0,0,0-2.55,2.13H82.67c.18-2,1.34-3.65,4.53-3.65,2.52,0,4.24,1,4.24,3.74Zm-1.88-3.16h-1.9c-2.91,0-3.46,1.19-3.46,2.28a2,2,0,0,0,2.22,2.14c2.36,0,3.14-1.59,3.14-4.17Z"/><path class="cls-8" d="M96.15,12.15c1.62,5.09,2.7,8.47,3.06,10.15h0c.26-1.41,2.33-7.48,3.18-10.15h2l-4.14,12H98.05l-4-12Z"/><path class="cls-8" d="M108.39,18.54c0,2.4,1,4.22,3.13,4.22a2.74,2.74,0,0,0,2.76-2h1.93a4.59,4.59,0,0,1-4.78,3.63c-3.76,0-5-3-5-6.28,0-3,1.45-6.2,5.15-6.2s4.86,2.93,4.86,5.71c0,.06,0,.83,0,.91Zm6.07-1.44c-.06-2-.88-3.59-3-3.59-2.38,0-2.94,2.16-3,3.59Z"/><path class="cls-8" d="M120,15.92c0-2.51,0-3.25,0-3.77h1.93c0,.23.09,1.39.07,1.89a3.66,3.66,0,0,1,3.55-2.12c2.22,0,3.82,1.25,3.82,4.5v7.75h-2V16.72c0-1.75-.59-3.08-2.38-3.08-2.14,0-3,1.59-3,4.11v6.42h-2Z"/><g id="Bot"><rect class="cls-9" x="137.23" y="1.1" width="44.32" height="28.46" rx="3.43"/><text class="cls-10" transform="translate(143.37 21.53)">B<tspan class="cls-11" x="10.8" y="0">O</tspan><tspan x="22.52" y="0">T</tspan></text></g><path class="cls-12" d="M192.4,20.28a3.7,3.7,0,0,1,2.37-3.55,3.23,3.23,0,0,1-1.84-3.05c0-2.18,1.49-3.73,4.15-3.73,2.38,0,4,1.41,4,3.66a3.08,3.08,0,0,1-1.87,3,3.64,3.64,0,0,1,2.34,3.58c0,2.67-1.81,4.28-4.66,4.28A4.13,4.13,0,0,1,192.4,20.28Zm7.37,0a2.8,2.8,0,1,0-5.59,0A2.68,2.68,0,0,0,197,23.08,2.59,2.59,0,0,0,199.77,20.26Zm-5.13-6.58A2.15,2.15,0,0,0,197,16a2.11,2.11,0,0,0,2.36-2.28A2.22,2.22,0,0,0,197,11.36,2.14,2.14,0,0,0,194.64,13.68Z"/><path class="cls-12" d="M204.68,16.6V13.69h1.72V16.6Zm0,7.71v-2.9h1.72v2.9Z"/><path class="cls-12" d="M215.82,24.3V20.55h-6.36V18.92l5.81-8.8h2.23v9h1.64L219,20.55H217.5V24.3Zm0-9.25c0-1.16,0-2.62.05-3.49-.86,1.52-3.42,5.42-4.71,7.51h4.66Z"/><path class="cls-12" d="M221.8,20.28a3.7,3.7,0,0,1,2.37-3.55,3.23,3.23,0,0,1-1.84-3.05c0-2.18,1.49-3.73,4.15-3.73,2.38,0,4,1.41,4,3.66a3.08,3.08,0,0,1-1.87,3A3.64,3.64,0,0,1,231,20.23c0,2.67-1.81,4.28-4.66,4.28A4.13,4.13,0,0,1,221.8,20.28Zm7.36,0a2.79,2.79,0,1,0-5.58,0,2.68,2.68,0,0,0,2.81,2.85A2.59,2.59,0,0,0,229.16,20.26ZM224,13.68A2.15,2.15,0,0,0,226.43,16a2.11,2.11,0,0,0,2.36-2.28,2.22,2.22,0,0,0-2.38-2.38A2.14,2.14,0,0,0,224,13.68Z"/><path class="cls-12" d="M242.3,19.85l-1.43,4.45h-1.81c1-3.05,3.61-11.15,4.76-14.61h2.29l5,14.61h-1.94l-1.47-4.45Zm4.92-1.56c-1.23-3.76-2-5.94-2.3-7.1h0c-.41,1.72-1.17,4-2.18,7.1Z"/><path class="cls-12" d="M265.85,18.08c0-2.7,0-5.49.09-7h-.06c-.69,2.62-2.93,9.06-4.43,13.25h-1.69c-1.13-3.5-3.43-10.49-4.14-13.28h-.07c.11,1.69.16,5,.16,7.46V24.3H254V9.69h2.72c1.52,4.32,3.48,10.29,4,12.3h0c.29-1.4,2.64-7.95,4.23-12.3h2.66V24.3h-1.78Z"/><path class="cls-12" d="M235,47.19v1.59h-5.24V47.19Z"/><path class="cls-12" d="M252.32,51.09a19.41,19.41,0,0,0,.16,2.43h-1.62a8.52,8.52,0,0,1-.16-1.69,3.23,3.23,0,0,1-3.31,1.88,3.15,3.15,0,0,1-3.49-3.32c0-1.64,1.07-3.47,5-3.47h1.67V45.86c0-1-.29-2.11-2.14-2.11a2,2,0,0,0-2.33,1.94h-1.75c.17-1.83,1.22-3.32,4.13-3.32,2.29,0,3.86.92,3.86,3.41Zm-1.71-2.87h-1.74c-2.64,0-3.14,1.07-3.14,2.07a1.85,1.85,0,0,0,2,2c2.15,0,2.86-1.45,2.86-3.8Z"/><path class="cls-12" d="M271,52.69c0,3.4-1.37,5.33-4.69,5.33s-4.16-1.71-4.32-3.27h1.77c.24,1.22,1.22,1.81,2.62,1.81,2.34,0,2.88-1.53,2.88-3.92v-.9a3.08,3.08,0,0,1-3.21,1.8c-2.57,0-4.24-2.15-4.24-5.54s2-5.63,4.49-5.63c1.72,0,2.62.71,2.91,1.55,0-.46,0-1.09.08-1.34H271c0,.52,0,1.68,0,3.17ZM263.62,48c0,2.54,1.07,4,2.81,4,2.09,0,2.82-1.3,2.82-4s-.6-4-2.73-4C264.71,43.92,263.62,45.44,263.62,48Z"/><path class="cls-12" d="M276,48.39c0,2.19.92,3.84,2.85,3.84a2.49,2.49,0,0,0,2.51-1.8h1.76a4.19,4.19,0,0,1-4.36,3.29c-3.42,0-4.58-2.69-4.58-5.7,0-2.69,1.32-5.65,4.69-5.65s4.42,2.67,4.42,5.19c0,.06,0,.76,0,.83Zm5.52-1.31c-.06-1.86-.8-3.26-2.7-3.26-2.16,0-2.68,2-2.77,3.26Z"/><path class="cls-12" d="M286.54,46c0-2.28,0-3,0-3.43h1.75c0,.21.08,1.26.07,1.72a3.32,3.32,0,0,1,3.22-1.93c2,0,3.48,1.14,3.48,4.09v7.06h-1.8V46.74c0-1.59-.54-2.81-2.17-2.81-1.95,0-2.73,1.45-2.73,3.74v5.85h-1.78Z"/><path class="cls-12" d="M297.47,42.58h1.76V39.4H301v3.18h2.21v1.47H301v6.84c0,.92.23,1.3,1.16,1.3a5.41,5.41,0,0,0,.85-.07v1.34a4.55,4.55,0,0,1-1.43.19c-1.59,0-2.35-.61-2.35-2.42V44.05h-1.76Z"/><path class="cls-12" d="M305.88,53.52V37.81h1.78V53.52Z"/><path class="cls-12" d="M312.76,48.39c0,2.19.92,3.84,2.85,3.84a2.49,2.49,0,0,0,2.51-1.8h1.76a4.19,4.19,0,0,1-4.36,3.29c-3.42,0-4.58-2.69-4.58-5.7,0-2.69,1.32-5.65,4.68-5.65s4.43,2.67,4.43,5.19c0,.06,0,.76,0,.83Zm5.52-1.31c-.06-1.86-.8-3.26-2.7-3.26-2.16,0-2.68,2-2.78,3.26Z"/><path class="cls-12" d="M329.44,46.29c0-1.74,0-3.17,0-3.71h1.75c0,.52.05,1.22.05,2.22a3.67,3.67,0,0,1,3.54-2.42v1.86c-2.46.09-3.51,1.54-3.51,3.9v5.38h-1.79Z"/><path class="cls-12" d="M338.4,48.39c0,2.19.92,3.84,2.85,3.84a2.49,2.49,0,0,0,2.5-1.8h1.76a4.18,4.18,0,0,1-4.35,3.29c-3.42,0-4.58-2.69-4.58-5.7,0-2.69,1.31-5.65,4.68-5.65s4.42,2.67,4.42,5.19c0,.06,0,.76,0,.83Zm5.52-1.31c-.06-1.86-.81-3.26-2.7-3.26-2.17,0-2.68,2-2.78,3.26Z"/><path class="cls-12" d="M348.91,46c0-2,0-2.92,0-3.41h1.75c0,.31.07,1.18.06,1.55a3.29,3.29,0,0,1,3.07-1.76,2.67,2.67,0,0,1,2.79,1.88,3.47,3.47,0,0,1,3.24-1.88c1.66,0,3.27.85,3.27,3.73v7.42h-1.76V46.4c0-1.33-.43-2.48-2-2.48s-2.41,1.42-2.41,3.17v6.43h-1.75V46.31c0-1.35-.55-2.38-2-2.38s-2.49,1.18-2.49,3.35v6.24h-1.77Z"/><path class="cls-12" d="M367.07,37.81h1.78v2.33h-1.78Zm0,4.77h1.78V53.52h-1.78Z"/><path class="cls-12" d="M372.87,46c0-2.28,0-3-.05-3.43h1.76a16.64,16.64,0,0,1,.06,1.72,3.34,3.34,0,0,1,3.23-1.93c2,0,3.48,1.14,3.48,4.09v7.06h-1.8V46.74c0-1.59-.54-2.81-2.17-2.81-1.95,0-2.73,1.45-2.73,3.74v5.85h-1.78Z"/><path class="cls-12" d="M393.85,37.81V50.67c0,1,0,2.17,0,2.85h-1.76c0-.29-.06-1-.06-1.62-.58,1.27-1.46,1.82-3.26,1.82-2.83,0-4.24-2.39-4.24-5.65s1.64-5.7,4.6-5.7c1.77,0,2.6.7,2.89,1.31V37.81ZM386.43,48c0,2.66,1.15,4.19,2.87,4.19,2.35,0,2.84-1.78,2.84-4.35,0-3-.88-3.92-2.73-3.92S386.43,45.38,386.43,48Z"/><path class="cls-12" d="M399,48.39c0,2.19.92,3.84,2.85,3.84a2.49,2.49,0,0,0,2.51-1.8h1.76a4.19,4.19,0,0,1-4.36,3.29c-3.42,0-4.58-2.69-4.58-5.7,0-2.69,1.32-5.65,4.69-5.65s4.42,2.67,4.42,5.19c0,.06,0,.76,0,.83Zm5.52-1.31c-.06-1.86-.8-3.26-2.7-3.26-2.16,0-2.68,2-2.77,3.26Z"/><path class="cls-12" d="M409.5,46.29c0-1.74,0-3.17-.05-3.71h1.76c0,.52,0,1.22,0,2.22a3.68,3.68,0,0,1,3.54-2.42v1.86c-2.46.09-3.51,1.54-3.51,3.9v5.38H409.5Z"/><path class="cls-12" d="M422.11,42.58h1.76V39.4h1.77v3.18h2.21v1.47h-2.21v6.84c0,.92.23,1.3,1.17,1.3a5.28,5.28,0,0,0,.84-.07v1.34a4.51,4.51,0,0,1-1.43.19c-1.59,0-2.35-.61-2.35-2.42V44.05h-1.76Z"/><path class="cls-12" d="M439.44,47.87c0,3.17-1.38,5.83-4.88,5.83s-4.74-2.77-4.74-5.78,1.57-5.55,4.88-5.55C437.79,42.37,439.44,44.72,439.44,47.87Zm-7.78,0c0,2.52,1,4.31,3,4.31s2.93-1.75,2.93-4.33c0-2.37-1-4-3-4S431.66,45.53,431.66,47.9Z"/><path class="cls-12" d="M449.4,53.52V44.05h-1.68V42.58h1.68V41.22c0-1.94.68-3.58,3-3.58a3.28,3.28,0,0,1,1,.15V39.3a3.58,3.58,0,0,0-.89-.09c-1,0-1.33.65-1.33,1.92v1.45h2v1.47h-2v9.47Z"/><path class="cls-12" d="M455.83,37.81h1.79v2.33h-1.79Zm0,4.77h1.79V53.52h-1.79Z"/><path class="cls-12" d="M461.63,53.52V37.81h1.79V53.52Z"/><path class="cls-12" d="M467.43,53.52V37.81h1.79V53.52Z"/><path class="cls-12" d="M480.11,42.58c1.69,5.3,2.58,8,2.86,9.27h0c.33-1.2,1.3-4.54,2.79-9.27h1.84L483.8,54c-1.12,3.33-2,4-3.95,4a6.17,6.17,0,0,1-.94-.08V56.41a7.07,7.07,0,0,0,.94.06c1.31,0,1.72-1,2.24-2.62l-3.9-11.27Z"/><path class="cls-12" d="M499.12,47.87c0,3.17-1.38,5.83-4.88,5.83s-4.74-2.77-4.74-5.78,1.57-5.55,4.88-5.55C497.47,42.37,499.12,44.72,499.12,47.87Zm-7.78,0c0,2.52,1,4.31,3,4.31s2.93-1.75,2.93-4.33c0-2.37-1-4-3-4S491.34,45.53,491.34,47.9Z"/><path class="cls-12" d="M510.67,50.43c0,1.36,0,2.56,0,3.09H509a13.22,13.22,0,0,1-.09-1.74,3.25,3.25,0,0,1-3.21,1.93c-1.71,0-3.34-.82-3.34-3.76V42.58h1.77v7c0,1.41.45,2.56,2.11,2.56s2.63-1,2.63-3.46V42.58h1.82Z"/><path class="cls-12" d="M514.67,46.29c0-1.74,0-3.17,0-3.71h1.75c0,.52,0,1.22,0,2.22A3.66,3.66,0,0,1,520,42.38v1.86c-2.46.09-3.51,1.54-3.51,3.9v5.38h-1.78Z"/><path class="cls-12" d="M529.62,50.36a2.28,2.28,0,0,0,2.46,2c1.51,0,2.11-.81,2.11-1.74s-.69-1.5-2.55-2c-2.66-.72-3.37-1.69-3.37-3.16s1-3,3.67-3,3.66,1.46,3.81,3.14H534a1.93,1.93,0,0,0-2.13-1.75c-1.24,0-1.81.6-1.81,1.51s.41,1.25,2.26,1.74c2.78.74,3.67,1.69,3.67,3.42,0,2-1.61,3.28-4,3.28s-3.95-1.07-4.16-3.35Z"/><path class="cls-12" d="M537.79,42.58h1.75V39.4h1.78v3.18h2.2v1.47h-2.2v6.84c0,.92.23,1.3,1.16,1.3a5.41,5.41,0,0,0,.85-.07v1.34a4.59,4.59,0,0,1-1.43.19c-1.59,0-2.36-.61-2.36-2.42V44.05h-1.75Z"/><path class="cls-12" d="M553.91,51.09a19.41,19.41,0,0,0,.16,2.43h-1.62a8.52,8.52,0,0,1-.16-1.69A3.23,3.23,0,0,1,549,53.71a3.15,3.15,0,0,1-3.49-3.32c0-1.64,1.06-3.47,5-3.47h1.67V45.86c0-1-.29-2.11-2.14-2.11a2,2,0,0,0-2.33,1.94h-1.75c.17-1.83,1.22-3.32,4.13-3.32,2.29,0,3.86.92,3.86,3.41Zm-1.71-2.87h-1.74c-2.64,0-3.14,1.07-3.14,2.07a1.85,1.85,0,0,0,2,2c2.15,0,2.86-1.45,2.86-3.8Z"/><path class="cls-12" d="M557.92,46c0-2.28,0-3,0-3.43h1.75c0,.21.08,1.26.07,1.72a3.32,3.32,0,0,1,3.22-1.93c2,0,3.48,1.14,3.48,4.09v7.06h-1.8V46.74c0-1.59-.53-2.81-2.16-2.81-2,0-2.73,1.45-2.73,3.74v5.85h-1.79Z"/><path class="cls-12" d="M578.91,37.81V50.67c0,1,0,2.17,0,2.85H577.2c0-.29-.07-1-.07-1.62-.57,1.27-1.46,1.82-3.26,1.82-2.83,0-4.23-2.39-4.23-5.65s1.64-5.7,4.6-5.7c1.76,0,2.59.7,2.88,1.31V37.81ZM571.49,48c0,2.66,1.14,4.19,2.86,4.19,2.36,0,2.84-1.78,2.84-4.35,0-3-.87-3.92-2.72-3.92S571.49,45.38,571.49,48Z"/><path class="cls-12" d="M591.13,50.43c0,1.36,0,2.56,0,3.09h-1.72a11.3,11.3,0,0,1-.1-1.74,3.22,3.22,0,0,1-3.2,1.93c-1.71,0-3.35-.82-3.35-3.76V42.58h1.78v7c0,1.41.45,2.56,2.11,2.56s2.63-1,2.63-3.46V42.58h1.81Z"/><path class="cls-12" d="M596.91,52.2v5.65h-1.77V45.8c0-1.49,0-2.54,0-3.22h1.75c0,.38.06,1.16.06,1.77a3.51,3.51,0,0,1,3.41-2c2.38,0,4.08,1.88,4.08,5.5s-2,5.83-4.52,5.83A3.09,3.09,0,0,1,596.91,52.2Zm5.65-4.27c0-2.63-1.06-4-2.81-4-2.25,0-2.92,1.55-2.92,4.18,0,2.41.46,4.08,2.8,4.08C601.47,52.17,602.56,50.64,602.56,47.93Z"/><path class="cls-12" d="M607,53.53v-3h1.75v3Z"/><g id="Bot-2" data-name="Bot"><rect class="cls-13" x="67.06" y="32.52" width="153.43" height="28.46" rx="6.14"/><text class="cls-14" transform="translate(69.9 53.52)">@<tspan class="cls-15" x="19.35" y="0">E</tspan><tspan x="31.71" y="0">mi</tspan><tspan class="cls-16" x="55.57" y="0">l</tspan><tspan class="cls-17" x="61.45" y="0">y Bender</tspan></text></g></svg>